<svg xmlns="http://www.w3.org/2000/svg" xmlns:xlink="http://www.w3.org/1999/xlink" width="500" zoomAndPan="magnify" viewBox="0 0 375 374.999991" height="500" preserveAspectRatio="xMidYMid meet" version="1.0"><defs><clipPath id="fd8331d104"><path d="M 61.914062 62.855469 L 313.164062 62.855469 L 313.164062 311.855469 L 61.914062 311.855469 Z M 61.914062 62.855469 " clip-rule="nonzero"/></clipPath><clipPath id="fdc28e6f64"><path d="M 306.804688 216.203125 C 300.894531 211.53125 292.375 210.839844 285.675781 214.480469 L 232.582031 243.25 L 232.582031 238.480469 C 232.582031 226.777344 237.308594 215.710938 245.582031 208.183594 C 258.585938 196.285156 266.023438 179.414062 266.023438 161.855469 C 266.023438 143.90625 258.339844 126.792969 244.894531 114.839844 C 243.761719 113.855469 242.085938 113.957031 241.101562 115.039062 C 240.117188 116.167969 240.214844 117.839844 241.300781 118.824219 C 253.5625 129.742188 260.605469 145.429688 260.605469 161.808594 C 260.605469 177.839844 253.808594 193.285156 241.890625 204.152344 C 232.53125 212.710938 227.113281 225.203125 227.113281 238.429688 L 227.113281 246.152344 L 221.203125 249.347656 C 220.613281 249.695312 219.972656 249.9375 219.332031 250.234375 C 219.035156 250.382812 218.742188 250.480469 218.445312 250.628906 L 218.445312 224.070312 C 218.445312 222.59375 217.265625 221.367188 215.738281 221.367188 C 214.605469 221.367188 213.667969 222.054688 213.273438 223.039062 C 213.125 223.382812 213.078125 223.726562 213.078125 224.070312 L 213.078125 251.957031 C 213.027344 251.957031 213.027344 251.957031 212.980469 251.957031 C 212.683594 252.003906 212.339844 252.003906 212.042969 252.054688 C 204.851562 252.742188 198.546875 250.183594 192.984375 245.808594 L 192.984375 238.628906 L 200.914062 236.316406 C 207.609375 234.347656 211.699219 227.660156 210.367188 220.824219 C 209.136719 214.480469 203.570312 209.90625 197.121094 209.90625 C 196.726562 209.90625 196.382812 209.90625 195.789062 209.957031 L 195.59375 209.957031 L 192.984375 210.203125 L 192.984375 195.792969 C 192.984375 194.710938 192.34375 193.777344 191.359375 193.332031 C 184.414062 190.285156 179.144531 184.726562 176.335938 177.988281 C 174.90625 174.546875 174.070312 170.757812 174.070312 166.875 C 174.070312 164.957031 174.265625 163.039062 174.613281 161.21875 C 175.695312 155.660156 178.402344 150.59375 182.394531 146.5625 L 182.394531 163.972656 C 182.394531 168.644531 186.234375 172.480469 190.914062 172.480469 L 215.046875 172.480469 C 219.726562 172.480469 223.566406 168.644531 223.566406 163.972656 L 223.566406 146.5625 C 228.886719 151.921875 231.941406 159.203125 231.941406 166.875 C 231.941406 170.757812 231.152344 174.496094 229.726562 177.9375 C 226.917969 184.675781 221.648438 190.285156 214.703125 193.332031 C 213.71875 193.777344 213.078125 194.710938 213.078125 195.792969 L 213.078125 212.5625 C 213.078125 214.039062 214.257812 215.265625 215.785156 215.265625 C 217.265625 215.265625 218.496094 214.085938 218.496094 212.5625 L 218.496094 197.511719 C 225.539062 193.972656 231.054688 188.121094 234.207031 181.136719 C 236.226562 176.757812 237.359375 171.890625 237.359375 166.875 C 237.359375 156.988281 233.074219 147.644531 225.785156 141.203125 C 224.75 140.265625 223.617188 139.429688 222.433594 138.59375 C 221.597656 138.054688 220.5625 137.957031 219.675781 138.449219 C 218.789062 138.890625 218.25 139.824219 218.25 140.808594 L 218.25 163.972656 C 218.25 164.414062 218.152344 164.808594 218.003906 165.203125 C 217.558594 166.183594 216.671875 166.824219 215.589844 167.019531 C 215.441406 167.070312 215.292969 167.121094 215.097656 167.121094 L 191.011719 167.121094 C 190.914062 167.121094 190.816406 167.070312 190.71875 167.070312 C 189.535156 166.972656 188.5 166.136719 188.105469 165.054688 C 188.007812 164.710938 187.910156 164.367188 187.910156 164.019531 L 187.910156 140.855469 C 187.910156 139.875 187.367188 138.9375 186.480469 138.496094 C 185.59375 138.054688 184.511719 138.101562 183.722656 138.644531 C 181.605469 140.070312 179.734375 141.742188 178.058594 143.5625 C 173.480469 148.429688 170.476562 154.578125 169.34375 161.21875 C 169.046875 163.085938 168.800781 165.003906 168.800781 166.921875 C 168.800781 171.003906 169.539062 174.9375 170.867188 178.628906 C 173.824219 186.695312 179.785156 193.53125 187.664062 197.511719 L 187.664062 210.742188 L 180.523438 211.480469 L 171.261719 212.414062 C 169.242188 209.367188 166.878906 206.613281 164.171875 204.152344 C 160.035156 200.367188 156.4375 195.988281 153.53125 191.070312 C 152.792969 189.792969 151.117188 189.398438 149.839844 190.136719 C 148.558594 190.875 148.164062 192.546875 148.902344 193.824219 C 152.105469 199.136719 155.996094 203.957031 160.527344 208.085938 C 162.152344 209.613281 163.679688 211.234375 165.007812 213.003906 L 133.632812 216.101562 C 133.289062 216.152344 132.945312 216.203125 132.5 216.300781 L 122.601562 218.855469 L 122.601562 214.921875 C 122.601562 210.449219 119.105469 206.855469 114.769531 206.855469 C 113.292969 206.855469 112.0625 208.039062 112.0625 209.5625 C 112.0625 211.039062 113.242188 212.265625 114.769531 212.265625 C 116.101562 212.265625 117.183594 213.496094 117.183594 214.972656 C 117.183594 214.972656 117.183594 222.300781 117.183594 222.347656 C 117.183594 222.347656 117.183594 280.777344 117.183594 280.777344 L 117.183594 288.054688 C 117.183594 289.578125 116.101562 290.808594 114.769531 290.808594 L 96.203125 290.808594 C 94.871094 290.808594 93.789062 289.578125 93.789062 288.054688 L 93.789062 214.972656 C 93.789062 213.449219 94.871094 212.265625 96.203125 212.265625 L 103.886719 212.265625 C 105.363281 212.265625 106.59375 211.085938 106.59375 209.5625 C 106.59375 208.085938 105.414062 206.855469 103.886719 206.855469 L 96.203125 206.855469 C 91.917969 206.855469 88.371094 210.496094 88.371094 214.921875 L 88.371094 216.25 L 64.632812 216.25 C 63.15625 216.25 61.921875 217.429688 61.921875 218.957031 L 61.921875 236.613281 C 61.921875 238.085938 63.105469 239.316406 64.632812 239.316406 C 66.160156 239.316406 67.339844 238.136719 67.339844 236.613281 L 67.339844 221.660156 L 88.421875 221.660156 L 88.421875 281.367188 L 67.292969 281.367188 L 67.292969 247.136719 C 67.292969 245.660156 66.109375 244.429688 64.582031 244.429688 C 63.054688 244.429688 61.921875 245.710938 61.921875 247.183594 L 61.921875 284.121094 C 61.921875 285.59375 63.105469 286.824219 64.632812 286.824219 L 88.421875 286.824219 L 88.421875 288.101562 C 88.421875 292.578125 91.917969 296.21875 96.25 296.21875 L 114.871094 296.21875 C 119.152344 296.21875 122.699219 292.578125 122.699219 288.101562 L 122.699219 283.480469 L 128.5625 283.480469 C 131.367188 283.480469 134.175781 284.167969 136.636719 285.398438 L 177.371094 306.203125 C 184.757812 309.988281 192.933594 311.855469 201.058594 311.855469 C 212.585938 311.855469 224.011719 308.121094 233.023438 300.839844 L 265.136719 275.019531 C 266.320312 274.085938 266.464844 272.414062 265.53125 271.234375 C 264.59375 270.054688 262.921875 269.90625 261.738281 270.839844 L 229.625 296.660156 C 215.933594 307.726562 195.886719 309.644531 179.832031 301.429688 L 139.101562 280.628906 C 135.898438 279.003906 132.253906 278.121094 128.5625 278.121094 L 122.699219 278.121094 L 122.699219 224.464844 L 133.832031 221.613281 C 133.980469 221.5625 134.125 221.5625 134.273438 221.5625 L 169.933594 218.019531 C 170.03125 218.019531 170.082031 218.019531 170.179688 218.019531 L 179.929688 217.039062 L 196.527344 215.414062 C 200.863281 215.070312 204.457031 217.875 205.195312 221.957031 C 205.984375 225.988281 203.472656 230.070312 199.535156 231.25 L 189.683594 234.101562 L 179.929688 236.957031 C 179.09375 237.203125 178.453125 237.839844 178.15625 238.675781 C 178.109375 238.773438 178.058594 238.921875 178.011719 239.019531 C 177.960938 239.265625 177.960938 239.511719 177.960938 239.757812 C 178.011719 240.496094 178.402344 241.183594 178.996094 241.628906 L 181.113281 243.300781 C 181.113281 243.300781 188.746094 249.300781 188.746094 249.300781 C 191.308594 251.316406 193.769531 253.285156 196.726562 254.660156 C 200.320312 256.382812 204.210938 257.367188 208.203125 257.5625 C 212.929688 257.808594 217.707031 256.921875 222.042969 255.054688 C 224.308594 254.070312 226.425781 252.792969 228.59375 251.613281 C 232.53125 249.496094 236.472656 247.332031 240.414062 245.21875 C 245.582031 242.414062 250.753906 239.613281 255.925781 236.808594 C 261.148438 234.003906 266.320312 231.152344 271.539062 228.347656 C 275.527344 226.183594 279.519531 224.019531 283.558594 221.855469 C 285.132812 221.019531 286.710938 220.136719 288.285156 219.300781 C 293.0625 216.695312 299.316406 217.183594 303.503906 220.480469 C 306.214844 222.59375 307.738281 225.546875 307.738281 228.742188 C 307.738281 231.9375 306.261719 234.890625 303.601562 237.054688 L 273.066406 261.59375 C 271.882812 262.53125 271.738281 264.203125 272.671875 265.382812 C 273.609375 266.5625 275.28125 266.710938 276.464844 265.777344 L 306.953125 241.234375 C 310.890625 238.039062 313.15625 233.464844 313.109375 228.695312 C 313.058594 223.875 310.792969 219.347656 306.804688 216.203125 Z M 187.664062 241.628906 L 186.382812 240.59375 L 187.664062 240.203125 Z M 109.15625 272.367188 C 110.632812 272.367188 111.863281 273.59375 111.863281 275.070312 L 111.863281 282.25 C 111.863281 283.777344 110.632812 284.957031 109.15625 284.957031 L 101.914062 284.957031 C 100.4375 284.957031 99.207031 283.777344 99.207031 282.25 L 99.207031 275.019531 C 99.207031 273.546875 100.4375 272.316406 101.914062 272.316406 L 109.15625 272.316406 Z M 140.085938 161.957031 C 140.035156 129.003906 166.730469 100.777344 199.679688 99.054688 C 212.191406 98.414062 224.503906 101.414062 235.242188 107.757812 C 236.523438 108.496094 236.964844 110.167969 236.175781 111.449219 C 235.4375 112.726562 233.761719 113.167969 232.484375 112.382812 C 222.683594 106.578125 211.453125 103.824219 199.976562 104.414062 C 169.882812 105.988281 145.453125 131.757812 145.503906 161.90625 C 145.503906 168.347656 146.585938 174.644531 148.65625 180.644531 C 149.148438 182.070312 148.410156 183.59375 146.980469 184.085938 C 146.6875 184.183594 146.390625 184.234375 146.09375 184.234375 C 144.960938 184.234375 143.929688 183.546875 143.535156 182.414062 C 141.269531 175.875 140.085938 168.988281 140.085938 161.957031 Z M 256.714844 108.546875 C 255.679688 107.511719 255.679688 105.792969 256.714844 104.757812 L 269.570312 91.921875 C 270.605469 90.890625 272.328125 90.890625 273.363281 91.921875 C 274.394531 92.957031 274.394531 94.675781 273.363281 95.710938 L 260.507812 108.546875 C 259.964844 109.085938 259.277344 109.332031 258.585938 109.332031 C 257.945312 109.332031 257.257812 109.085938 256.714844 108.546875 Z M 103.640625 162.152344 C 103.640625 160.675781 104.820312 159.449219 106.347656 159.449219 L 124.472656 159.449219 C 125.949219 159.449219 127.183594 160.628906 127.183594 162.152344 C 127.183594 163.628906 126 164.855469 124.472656 164.855469 L 106.347656 164.855469 C 104.820312 164.855469 103.640625 163.628906 103.640625 162.152344 Z M 278.976562 162.152344 C 278.976562 160.675781 280.160156 159.449219 281.6875 159.449219 L 299.808594 159.449219 C 301.289062 159.449219 302.519531 160.628906 302.519531 162.152344 C 302.519531 163.628906 301.335938 164.855469 299.808594 164.855469 L 281.636719 164.855469 C 280.160156 164.855469 278.976562 163.628906 278.976562 162.152344 Z M 132.746094 95.757812 C 131.714844 94.726562 131.714844 93.003906 132.746094 91.972656 C 133.78125 90.9375 135.503906 90.9375 136.539062 91.972656 L 149.394531 104.808594 C 150.429688 105.839844 150.429688 107.5625 149.394531 108.59375 C 148.851562 109.136719 148.164062 109.382812 147.472656 109.382812 C 146.785156 109.382812 146.09375 109.136719 145.554688 108.59375 Z M 200.371094 83.660156 L 200.371094 65.5625 C 200.371094 64.085938 201.550781 62.855469 203.078125 62.855469 C 204.605469 62.855469 205.789062 64.039062 205.789062 65.5625 L 205.789062 83.710938 C 205.789062 85.183594 204.605469 86.414062 203.078125 86.414062 C 201.550781 86.414062 200.371094 85.136719 200.371094 83.660156 Z M 200.371094 83.660156 " clip-rule="nonzero"/></clipPath><linearGradient x1="13.703507" gradientTransform="matrix(0.49252, 0, 0, 0.491803, 61.430808, 61.431149)" y1="521.903504" x2="521.903513" gradientUnits="userSpaceOnUse" y2="13.703484" id="65e814c2ec"><stop stop-opacity="1" stop-color="rgb(54.899597%, 25.898743%, 95.698547%)" offset="0"/><stop stop-opacity="1" stop-color="rgb(54.899597%, 25.898743%, 95.698547%)" offset="0.0625"/><stop stop-opacity="1" stop-color="rgb(54.898071%, 25.898743%, 95.698547%)" offset="0.09375"/><stop stop-opacity="1" stop-color="rgb(54.675293%, 26.168823%, 95.698547%)" offset="0.0976562"/><stop stop-opacity="1" stop-color="rgb(54.454041%, 26.438904%, 95.698547%)" offset="0.101563"/><stop stop-opacity="1" stop-color="rgb(54.231262%, 26.708984%, 95.698547%)" offset="0.105469"/><stop stop-opacity="1" stop-color="rgb(54.01001%, 26.979065%, 95.698547%)" offset="0.109375"/><stop stop-opacity="1" stop-color="rgb(53.787231%, 27.24762%, 95.698547%)" offset="0.113281"/><stop stop-opacity="1" stop-color="rgb(53.565979%, 27.5177%, 95.698547%)" offset="0.117188"/><stop stop-opacity="1" stop-color="rgb(53.343201%, 27.787781%, 95.698547%)" offset="0.121094"/><stop stop-opacity="1" stop-color="rgb(53.121948%, 28.057861%, 95.698547%)" offset="0.125"/><stop stop-opacity="1" stop-color="rgb(52.89917%, 28.326416%, 95.698547%)" offset="0.128906"/><stop stop-opacity="1" stop-color="rgb(52.677917%, 28.596497%, 95.698547%)" offset="0.132812"/><stop stop-opacity="1" stop-color="rgb(52.455139%, 28.866577%, 95.698547%)" offset="0.136719"/><stop stop-opacity="1" stop-color="rgb(52.233887%, 29.136658%, 95.698547%)" offset="0.140625"/><stop stop-opacity="1" stop-color="rgb(52.011108%, 29.406738%, 95.698547%)" offset="0.144531"/><stop stop-opacity="1" stop-color="rgb(51.789856%, 29.676819%, 95.698547%)" offset="0.148438"/><stop stop-opacity="1" stop-color="rgb(51.567078%, 29.945374%, 95.698547%)" offset="0.152344"/><stop stop-opacity="1" stop-color="rgb(51.345825%, 30.215454%, 95.698547%)" offset="0.15625"/><stop stop-opacity="1" stop-color="rgb(51.123047%, 30.485535%, 95.698547%)" offset="0.160156"/><stop stop-opacity="1" stop-color="rgb(50.901794%, 30.755615%, 95.698547%)" offset="0.164063"/><stop stop-opacity="1" stop-color="rgb(50.679016%, 31.02417%, 95.698547%)" offset="0.167969"/><stop stop-opacity="1" stop-color="rgb(50.456238%, 31.29425%, 95.698547%)" offset="0.171875"/><stop stop-opacity="1" stop-color="rgb(50.233459%, 31.564331%, 95.698547%)" offset="0.175781"/><stop stop-opacity="1" stop-color="rgb(50.012207%, 31.834412%, 95.698547%)" offset="0.179688"/><stop stop-opacity="1" stop-color="rgb(49.789429%, 32.102966%, 95.698547%)" offset="0.183594"/><stop stop-opacity="1" stop-color="rgb(49.568176%, 32.373047%, 95.698547%)" offset="0.1875"/><stop stop-opacity="1" stop-color="rgb(49.345398%, 32.643127%, 95.698547%)" offset="0.191406"/><stop stop-opacity="1" stop-color="rgb(49.124146%, 32.913208%, 95.698547%)" offset="0.195313"/><stop stop-opacity="1" stop-color="rgb(48.901367%, 33.181763%, 95.698547%)" offset="0.199219"/><stop stop-opacity="1" stop-color="rgb(48.680115%, 33.451843%, 95.698547%)" offset="0.203125"/><stop stop-opacity="1" stop-color="rgb(48.457336%, 33.721924%, 95.698547%)" offset="0.207031"/><stop stop-opacity="1" stop-color="rgb(48.236084%, 33.992004%, 95.698547%)" offset="0.210938"/><stop stop-opacity="1" stop-color="rgb(48.013306%, 34.260559%, 95.698547%)" offset="0.214844"/><stop stop-opacity="1" stop-color="rgb(47.792053%, 34.53064%, 95.698547%)" offset="0.21875"/><stop stop-opacity="1" stop-color="rgb(47.569275%, 34.80072%, 95.698547%)" offset="0.222656"/><stop stop-opacity="1" stop-color="rgb(47.348022%, 35.070801%, 95.698547%)" offset="0.226563"/><stop stop-opacity="1" stop-color="rgb(47.125244%, 35.339355%, 95.698547%)" offset="0.230469"/><stop stop-opacity="1" stop-color="rgb(46.903992%, 35.609436%, 95.698547%)" offset="0.234375"/><stop stop-opacity="1" stop-color="rgb(46.681213%, 35.879517%, 95.698547%)" offset="0.238281"/><stop stop-opacity="1" stop-color="rgb(46.459961%, 36.149597%, 95.698547%)" offset="0.242188"/><stop stop-opacity="1" stop-color="rgb(46.237183%, 36.418152%, 95.698547%)" offset="0.246094"/><stop stop-opacity="1" stop-color="rgb(46.01593%, 36.688232%, 95.698547%)" offset="0.25"/><stop stop-opacity="1" stop-color="rgb(45.793152%, 36.958313%, 95.698547%)" offset="0.253906"/><stop stop-opacity="1" stop-color="rgb(45.570374%, 37.228394%, 95.698547%)" offset="0.257812"/><stop stop-opacity="1" stop-color="rgb(45.347595%, 37.496948%, 95.698547%)" offset="0.261719"/><stop stop-opacity="1" stop-color="rgb(45.126343%, 37.767029%, 95.698547%)" offset="0.265625"/><stop stop-opacity="1" stop-color="rgb(44.903564%, 38.037109%, 95.698547%)" offset="0.269531"/><stop stop-opacity="1" stop-color="rgb(44.682312%, 38.30719%, 95.698547%)" offset="0.273438"/><stop stop-opacity="1" stop-color="rgb(44.459534%, 38.575745%, 95.698547%)" offset="0.277344"/><stop stop-opacity="1" stop-color="rgb(44.238281%, 38.845825%, 95.698547%)" offset="0.28125"/><stop stop-opacity="1" stop-color="rgb(44.015503%, 39.115906%, 95.698547%)" offset="0.285156"/><stop stop-opacity="1" stop-color="rgb(43.79425%, 39.385986%, 95.698547%)" offset="0.289063"/><stop stop-opacity="1" stop-color="rgb(43.571472%, 39.656067%, 95.698547%)" offset="0.292969"/><stop stop-opacity="1" stop-color="rgb(43.35022%, 39.926147%, 95.698547%)" offset="0.296875"/><stop stop-opacity="1" stop-color="rgb(43.127441%, 40.194702%, 95.698547%)" offset="0.300781"/><stop stop-opacity="1" stop-color="rgb(42.906189%, 40.464783%, 95.698547%)" offset="0.304688"/><stop stop-opacity="1" stop-color="rgb(42.683411%, 40.734863%, 95.698547%)" offset="0.308594"/><stop stop-opacity="1" stop-color="rgb(42.462158%, 41.004944%, 95.698547%)" offset="0.3125"/><stop stop-opacity="1" stop-color="rgb(42.23938%, 41.273499%, 95.698547%)" offset="0.316406"/><stop stop-opacity="1" stop-color="rgb(42.018127%, 41.543579%, 95.698547%)" offset="0.320312"/><stop stop-opacity="1" stop-color="rgb(41.795349%, 41.81366%, 95.698547%)" offset="0.324219"/><stop stop-opacity="1" stop-color="rgb(41.574097%, 42.08374%, 95.698547%)" offset="0.328125"/><stop stop-opacity="1" stop-color="rgb(41.351318%, 42.352295%, 95.698547%)" offset="0.332031"/><stop stop-opacity="1" stop-color="rgb(41.130066%, 42.622375%, 95.698547%)" offset="0.335938"/><stop stop-opacity="1" stop-color="rgb(40.907288%, 42.892456%, 95.698547%)" offset="0.339844"/><stop stop-opacity="1" stop-color="rgb(40.684509%, 43.162537%, 95.698547%)" offset="0.34375"/><stop stop-opacity="1" stop-color="rgb(40.461731%, 43.431091%, 95.698547%)" offset="0.347656"/><stop stop-opacity="1" stop-color="rgb(40.240479%, 43.701172%, 95.698547%)" offset="0.351563"/><stop stop-opacity="1" stop-color="rgb(40.0177%, 43.971252%, 95.698547%)" offset="0.355469"/><stop stop-opacity="1" stop-color="rgb(39.796448%, 44.241333%, 95.698547%)" offset="0.359375"/><stop stop-opacity="1" stop-color="rgb(39.573669%, 44.509888%, 95.698547%)" offset="0.363281"/><stop stop-opacity="1" stop-color="rgb(39.352417%, 44.779968%, 95.698547%)" offset="0.367188"/><stop stop-opacity="1" stop-color="rgb(39.129639%, 45.050049%, 95.698547%)" offset="0.371094"/><stop stop-opacity="1" stop-color="rgb(38.908386%, 45.320129%, 95.698547%)" offset="0.375"/><stop stop-opacity="1" stop-color="rgb(38.685608%, 45.588684%, 95.698547%)" offset="0.378906"/><stop stop-opacity="1" stop-color="rgb(38.464355%, 45.858765%, 95.698547%)" offset="0.382813"/><stop stop-opacity="1" stop-color="rgb(38.241577%, 46.128845%, 95.698547%)" offset="0.386719"/><stop stop-opacity="1" stop-color="rgb(38.020325%, 46.398926%, 95.698547%)" offset="0.390625"/><stop stop-opacity="1" stop-color="rgb(37.797546%, 46.66748%, 95.698547%)" offset="0.394531"/><stop stop-opacity="1" stop-color="rgb(37.576294%, 46.937561%, 95.698547%)" offset="0.398438"/><stop stop-opacity="1" stop-color="rgb(37.353516%, 47.207642%, 95.698547%)" offset="0.402344"/><stop stop-opacity="1" stop-color="rgb(37.132263%, 47.477722%, 95.698547%)" offset="0.40625"/><stop stop-opacity="1" stop-color="rgb(36.909485%, 47.746277%, 95.698547%)" offset="0.410156"/><stop stop-opacity="1" stop-color="rgb(36.688232%, 48.016357%, 95.698547%)" offset="0.414063"/><stop stop-opacity="1" stop-color="rgb(36.465454%, 48.286438%, 95.698547%)" offset="0.417969"/><stop stop-opacity="1" stop-color="rgb(36.244202%, 48.556519%, 95.698547%)" offset="0.421875"/><stop stop-opacity="1" stop-color="rgb(36.021423%, 48.825073%, 95.698547%)" offset="0.425781"/><stop stop-opacity="1" stop-color="rgb(35.798645%, 49.095154%, 95.698547%)" offset="0.429688"/><stop stop-opacity="1" stop-color="rgb(35.575867%, 49.365234%, 95.698547%)" offset="0.433594"/><stop stop-opacity="1" stop-color="rgb(35.354614%, 49.635315%, 95.698547%)" offset="0.4375"/><stop stop-opacity="1" stop-color="rgb(35.131836%, 49.905396%, 95.698547%)" offset="0.441406"/><stop stop-opacity="1" stop-color="rgb(34.910583%, 50.175476%, 95.698547%)" offset="0.445313"/><stop stop-opacity="1" stop-color="rgb(34.687805%, 50.444031%, 95.698547%)" offset="0.449219"/><stop stop-opacity="1" stop-color="rgb(34.466553%, 50.714111%, 95.698547%)" offset="0.453125"/><stop stop-opacity="1" stop-color="rgb(34.243774%, 50.984192%, 95.698547%)" offset="0.457031"/><stop stop-opacity="1" stop-color="rgb(34.022522%, 51.254272%, 95.698547%)" offset="0.460938"/><stop stop-opacity="1" stop-color="rgb(33.799744%, 51.522827%, 95.698547%)" offset="0.464844"/><stop stop-opacity="1" stop-color="rgb(33.578491%, 51.792908%, 95.698547%)" offset="0.46875"/><stop stop-opacity="1" stop-color="rgb(33.355713%, 52.062988%, 95.698547%)" offset="0.472656"/><stop stop-opacity="1" stop-color="rgb(33.13446%, 52.333069%, 95.698547%)" offset="0.476563"/><stop stop-opacity="1" stop-color="rgb(32.911682%, 52.601624%, 95.698547%)" offset="0.480469"/><stop stop-opacity="1" stop-color="rgb(32.69043%, 52.871704%, 95.698547%)" offset="0.484375"/><stop stop-opacity="1" stop-color="rgb(32.467651%, 53.141785%, 95.698547%)" offset="0.488281"/><stop stop-opacity="1" stop-color="rgb(32.246399%, 53.411865%, 95.698547%)" offset="0.492188"/><stop stop-opacity="1" stop-color="rgb(32.023621%, 53.68042%, 95.698547%)" offset="0.496094"/><stop stop-opacity="1" stop-color="rgb(31.802368%, 53.9505%, 95.698547%)" offset="0.5"/><stop stop-opacity="1" stop-color="rgb(31.57959%, 54.220581%, 95.698547%)" offset="0.503906"/><stop stop-opacity="1" stop-color="rgb(31.358337%, 54.490662%, 95.698547%)" offset="0.507813"/><stop stop-opacity="1" stop-color="rgb(31.135559%, 54.759216%, 95.698547%)" offset="0.511719"/><stop stop-opacity="1" stop-color="rgb(30.912781%, 55.029297%, 95.698547%)" offset="0.515625"/><stop stop-opacity="1" stop-color="rgb(30.690002%, 55.299377%, 95.698547%)" offset="0.519531"/><stop stop-opacity="1" stop-color="rgb(30.46875%, 55.569458%, 95.698547%)" offset="0.523438"/><stop stop-opacity="1" stop-color="rgb(30.245972%, 55.838013%, 95.698547%)" offset="0.527344"/><stop stop-opacity="1" stop-color="rgb(30.024719%, 56.108093%, 95.698547%)" offset="0.53125"/><stop stop-opacity="1" stop-color="rgb(29.801941%, 56.378174%, 95.698547%)" offset="0.535156"/><stop stop-opacity="1" stop-color="rgb(29.580688%, 56.648254%, 95.698547%)" offset="0.539063"/><stop stop-opacity="1" stop-color="rgb(29.35791%, 56.916809%, 95.698547%)" offset="0.542969"/><stop stop-opacity="1" stop-color="rgb(29.136658%, 57.18689%, 95.698547%)" offset="0.546875"/><stop stop-opacity="1" stop-color="rgb(28.913879%, 57.45697%, 95.698547%)" offset="0.550781"/><stop stop-opacity="1" stop-color="rgb(28.692627%, 57.727051%, 95.698547%)" offset="0.554688"/><stop stop-opacity="1" stop-color="rgb(28.469849%, 57.995605%, 95.698547%)" offset="0.558594"/><stop stop-opacity="1" stop-color="rgb(28.248596%, 58.265686%, 95.698547%)" offset="0.5625"/><stop stop-opacity="1" stop-color="rgb(28.025818%, 58.535767%, 95.698547%)" offset="0.566406"/><stop stop-opacity="1" stop-color="rgb(27.804565%, 58.805847%, 95.698547%)" offset="0.570313"/><stop stop-opacity="1" stop-color="rgb(27.581787%, 59.074402%, 95.698547%)" offset="0.574219"/><stop stop-opacity="1" stop-color="rgb(27.360535%, 59.344482%, 95.698547%)" offset="0.578125"/><stop stop-opacity="1" stop-color="rgb(27.137756%, 59.614563%, 95.698547%)" offset="0.582031"/><stop stop-opacity="1" stop-color="rgb(26.916504%, 59.884644%, 95.698547%)" offset="0.585938"/><stop stop-opacity="1" stop-color="rgb(26.693726%, 60.154724%, 95.698547%)" offset="0.589844"/><stop stop-opacity="1" stop-color="rgb(26.472473%, 60.424805%, 95.698547%)" offset="0.59375"/><stop stop-opacity="1" stop-color="rgb(26.249695%, 60.693359%, 95.698547%)" offset="0.597656"/><stop stop-opacity="1" stop-color="rgb(26.028442%, 60.96344%, 95.698547%)" offset="0.601562"/><stop stop-opacity="1" stop-color="rgb(25.805664%, 61.233521%, 95.698547%)" offset="0.605469"/><stop stop-opacity="1" stop-color="rgb(25.582886%, 61.503601%, 95.698547%)" offset="0.609375"/><stop stop-opacity="1" stop-color="rgb(25.360107%, 61.772156%, 95.698547%)" offset="0.613281"/><stop stop-opacity="1" stop-color="rgb(25.138855%, 62.042236%, 95.698547%)" offset="0.617188"/><stop stop-opacity="1" stop-color="rgb(24.916077%, 62.312317%, 95.698547%)" offset="0.621094"/><stop stop-opacity="1" stop-color="rgb(24.694824%, 62.582397%, 95.698547%)" offset="0.625"/><stop stop-opacity="1" stop-color="rgb(24.472046%, 62.850952%, 95.698547%)" offset="0.628906"/><stop stop-opacity="1" stop-color="rgb(24.250793%, 63.121033%, 95.698547%)" offset="0.632813"/><stop stop-opacity="1" stop-color="rgb(24.028015%, 63.391113%, 95.698547%)" offset="0.636719"/><stop stop-opacity="1" stop-color="rgb(23.806763%, 63.661194%, 95.698547%)" offset="0.640625"/><stop stop-opacity="1" stop-color="rgb(23.583984%, 63.929749%, 95.698547%)" offset="0.644531"/><stop stop-opacity="1" stop-color="rgb(23.362732%, 64.199829%, 95.698547%)" offset="0.648438"/><stop stop-opacity="1" stop-color="rgb(23.139954%, 64.46991%, 95.698547%)" offset="0.652344"/><stop stop-opacity="1" stop-color="rgb(22.918701%, 64.73999%, 95.698547%)" offset="0.65625"/><stop stop-opacity="1" stop-color="rgb(22.695923%, 65.008545%, 95.698547%)" offset="0.660156"/><stop stop-opacity="1" stop-color="rgb(22.47467%, 65.278625%, 95.698547%)" offset="0.664062"/><stop stop-opacity="1" stop-color="rgb(22.251892%, 65.548706%, 95.698547%)" offset="0.667969"/><stop stop-opacity="1" stop-color="rgb(22.03064%, 65.818787%, 95.698547%)" offset="0.671875"/><stop stop-opacity="1" stop-color="rgb(21.807861%, 66.087341%, 95.698547%)" offset="0.675781"/><stop stop-opacity="1" stop-color="rgb(21.586609%, 66.357422%, 95.698547%)" offset="0.679688"/><stop stop-opacity="1" stop-color="rgb(21.363831%, 66.627502%, 95.698547%)" offset="0.683594"/><stop stop-opacity="1" stop-color="rgb(21.142578%, 66.897583%, 95.698547%)" offset="0.6875"/><stop stop-opacity="1" stop-color="rgb(20.9198%, 67.166138%, 95.698547%)" offset="0.691406"/><stop stop-opacity="1" stop-color="rgb(20.697021%, 67.436218%, 95.698547%)" offset="0.695312"/><stop stop-opacity="1" stop-color="rgb(20.547485%, 67.617798%, 95.698547%)" offset="0.703125"/><stop stop-opacity="1" stop-color="rgb(20.399475%, 67.799377%, 95.698547%)" offset="0.71875"/><stop stop-opacity="1" stop-color="rgb(20.399475%, 67.799377%, 95.698547%)" offset="0.75"/><stop stop-opacity="1" stop-color="rgb(20.399475%, 67.799377%, 95.698547%)" offset="1"/></linearGradient></defs><g clip-path="url(#fd8331d104)"><g clip-path="url(#fdc28e6f64)"><path fill="url(#65e814c2ec)" d="M 61.921875 62.855469 L 61.921875 311.855469 L 313.15625 311.855469 L 313.15625 62.855469 Z M 61.921875 62.855469 " fill-rule="nonzero"/></g></g></svg>