<svg xmlns="http://www.w3.org/2000/svg" xmlns:xlink="http://www.w3.org/1999/xlink" width="500" zoomAndPan="magnify" viewBox="0 0 375 374.999991" height="500" preserveAspectRatio="xMidYMid meet" version="1.0"><defs><clipPath id="90b90a267a"><path d="M 135.90625 110.867188 L 239.40625 110.867188 L 239.40625 194.867188 L 135.90625 194.867188 Z M 135.90625 110.867188 " clip-rule="nonzero"/></clipPath><clipPath id="44b2aec187"><path d="M 158 174 L 162 174 L 162 194.867188 L 158 194.867188 Z M 158 174 " clip-rule="nonzero"/></clipPath></defs><path fill="#b852ff" d="M 83.308594 111.238281 C 83.65625 103.222656 93.234375 97.253906 100.457031 101.171875 C 105.355469 103.292969 107.042969 108.71875 107.445312 113.617188 C 115.828125 113.164062 123.011719 120.433594 121.453125 128.945312 C 127.53125 129.398438 133.9375 133.351562 134.246094 140.007812 C 134.394531 149.097656 133.085938 158.167969 131.652344 167.128906 C 131.980469 171.28125 124.539062 171.644531 124.558594 167.417969 C 125.175781 158.273438 127.460938 149.203125 126.953125 139.988281 C 126.371094 137.03125 123.160156 136.796875 120.765625 136.398438 C 119.660156 144.996094 119.800781 153.742188 118.476562 162.300781 C 118.207031 165.746094 112.015625 165.621094 111.65625 162.082031 C 111.929688 149.894531 113.632812 137.773438 114.015625 125.585938 C 114.6875 121.777344 109.734375 121.429688 107.171875 120.921875 C 106.902344 135.144531 107.535156 149.386719 107.027344 163.570312 C 106.992188 167.289062 100.382812 167.523438 100.167969 163.734375 C 99.515625 146.777344 100.09375 129.78125 99.75 112.800781 C 100.042969 110.371094 98.355469 108.445312 96.449219 107.25 C 92.945312 106.546875 90.386719 109.828125 90.460938 113.039062 C 88.828125 134.132812 87.03125 155.230469 85.632812 176.34375 C 85.398438 194.757812 88.699219 215 102.273438 228.570312 C 114.519531 241.449219 129.363281 253.875 132.703125 272.339844 C 133.5 275.585938 128.621094 277.582031 126.625 275.113281 C 123.503906 268.546875 121.996094 261.074219 117.222656 255.359375 C 107.421875 242.933594 93.6875 233.609375 86.558594 219.152344 C 79.300781 203.625 77.304688 186.011719 78.792969 169.054688 C 80.351562 149.789062 81.75 130.503906 83.308594 111.238281 Z M 83.308594 111.238281 " fill-opacity="1" fill-rule="nonzero"/><path fill="#b852ff" d="M 273.316406 101.464844 C 280.160156 97.21875 289.921875 102.351562 290.902344 110.152344 C 292.042969 120.707031 292.515625 131.320312 293.460938 141.894531 C 294.421875 159.816406 297.796875 177.882812 294.800781 195.808594 C 292.984375 206.78125 289.773438 217.867188 283.078125 226.917969 C 275.347656 237.710938 264.441406 245.710938 256.457031 256.285156 C 252.175781 261.855469 250.761719 268.875 247.820312 275.097656 C 245.804688 277.601562 241 275.679688 241.632812 272.449219 C 242.8125 266.84375 245.136719 261.527344 247.730469 256.449219 C 256.605469 241.121094 272.847656 231.617188 281.246094 215.980469 C 288.015625 201.449219 289.722656 184.976562 288.308594 169.160156 C 286.710938 150.058594 285.457031 130.921875 283.734375 111.855469 C 283.714844 108.5 280.175781 107.648438 277.746094 106.523438 C 276.726562 108.574219 274.441406 110.28125 274.640625 112.785156 C 274.421875 128.527344 274.585938 144.292969 274.460938 160.054688 C 274.511719 162.777344 274.40625 166.855469 270.558594 166.566406 C 267.035156 166.421875 267.089844 162.628906 267.144531 160.074219 C 267.128906 147.03125 267.328125 134.007812 267.199219 120.964844 C 264.585938 121.382812 259.6875 121.800781 260.359375 125.660156 C 260.773438 137.164062 262.191406 148.625 262.734375 160.144531 C 263.859375 163.9375 258.996094 166.3125 256.292969 163.773438 C 254.1875 154.828125 254.96875 145.46875 253.585938 136.398438 C 251.175781 136.765625 247.925781 137.105469 247.417969 140.082031 C 246.929688 149.261719 249.234375 158.296875 249.851562 167.402344 C 249.960938 171.046875 243.664062 171.574219 242.972656 168.21875 C 241.285156 158.894531 240.015625 149.371094 240.144531 139.882812 C 240.507812 133.316406 246.859375 129.34375 252.917969 128.945312 C 251.339844 120.417969 258.542969 113.164062 266.929688 113.582031 C 267.367188 108.917969 268.800781 103.769531 273.316406 101.464844 Z M 273.316406 101.464844 " fill-opacity="1" fill-rule="nonzero"/><path fill="#b852ff" d="M 104.523438 170.304688 C 109.566406 167.496094 116.515625 167.496094 120.796875 171.738281 C 128.929688 179.992188 135.660156 189.550781 143.898438 197.714844 C 152.589844 205.898438 164.730469 212.246094 167.542969 224.851562 C 170.628906 240.035156 172.699219 255.4375 175.945312 270.601562 C 177.070312 273.121094 175.617188 276.242188 172.660156 276.226562 C 169.738281 276.261719 169.136719 273.25 168.667969 271.019531 C 165.4375 256.542969 163.570312 241.777344 160.628906 227.25 C 158.941406 218.433594 151.03125 213.335938 144.660156 207.945312 C 133.355469 199.277344 125.71875 186.960938 115.734375 176.964844 C 112.613281 173.71875 104.539062 176.382812 106.589844 181.570312 C 112.796875 194.757812 121.523438 206.675781 128.074219 219.703125 C 129.214844 223.601562 123.011719 225.707031 121.429688 222.058594 C 114.550781 210.832031 108.019531 199.367188 101.378906 187.992188 C 97.847656 182.421875 98.300781 173.769531 104.523438 170.304688 Z M 104.523438 170.304688 " fill-opacity="1" fill-rule="nonzero"/><path fill="#b852ff" d="M 255.355469 170.359375 C 261.703125 166.078125 272.210938 168.707031 274.734375 176.289062 C 276.4375 181.585938 273.878906 186.882812 271.140625 191.3125 C 264.933594 201.507812 259.21875 212.007812 252.886719 222.113281 C 251.289062 225.667969 245.300781 223.617188 246.242188 219.792969 C 252.792969 206.804688 261.414062 194.902344 267.710938 181.789062 C 270.015625 176.617188 262.03125 173.695312 258.761719 176.855469 C 248.710938 186.8125 241.089844 199.167969 229.820312 207.894531 C 223.6875 213.117188 216.046875 217.925781 213.996094 226.269531 C 210.550781 242.105469 208.96875 258.324219 204.871094 274.011719 C 203.890625 277.804688 197.050781 276.101562 198.210938 272.34375 C 201.296875 256.527344 203.707031 240.5625 206.863281 224.746094 C 209.097656 214.585938 217.859375 208.273438 225.425781 202.070312 C 237.042969 193.105469 244.375 179.898438 255.355469 170.359375 Z M 255.355469 170.359375 " fill-opacity="1" fill-rule="nonzero"/><path fill="#5297ff" d="M 208.34375 138.292969 C 208.34375 139.238281 209.121094 140.007812 210.070312 140.007812 C 211.019531 140.007812 211.792969 139.238281 211.792969 138.292969 C 211.792969 137.351562 211.019531 136.578125 210.070312 136.578125 C 209.121094 136.578125 208.34375 137.351562 208.34375 138.292969 " fill-opacity="1" fill-rule="nonzero"/><path fill="#5297ff" d="M 216.964844 140.007812 C 217.914062 140.007812 218.691406 139.238281 218.691406 138.292969 C 218.691406 137.351562 217.914062 136.578125 216.964844 136.578125 C 216.015625 136.578125 215.242188 137.351562 215.242188 138.292969 C 215.242188 139.238281 216.015625 140.007812 216.964844 140.007812 " fill-opacity="1" fill-rule="nonzero"/><g clip-path="url(#90b90a267a)"><path fill="#5297ff" d="M 220.796875 164.636719 L 216.300781 161.953125 L 221.128906 157.152344 L 221.875 157.152344 Z M 209.785156 156.160156 L 208.34375 154.726562 L 208.34375 154.265625 C 209.914062 155.007812 211.664062 155.4375 213.519531 155.4375 C 215.371094 155.4375 217.121094 155.007812 218.691406 154.265625 L 218.691406 154.726562 L 213.6875 159.703125 C 212.601562 158.308594 211.28125 157.109375 209.785156 156.160156 Z M 195.46875 164.960938 L 190.667969 162.09375 L 196.882812 157.152344 L 198.835938 157.152344 Z M 189.757812 167.4375 L 185.554688 167.4375 L 185.136719 165.796875 L 187.65625 164.289062 L 190.175781 165.796875 Z M 179.84375 164.960938 L 176.476562 157.152344 L 178.429688 157.152344 L 184.644531 162.09375 Z M 161.625 159.703125 L 156.621094 154.726562 L 156.621094 154.265625 C 158.191406 155.007812 159.941406 155.4375 161.796875 155.4375 C 163.648438 155.4375 165.398438 155.007812 166.96875 154.265625 L 166.96875 154.726562 L 165.527344 156.160156 C 164.03125 157.109375 162.710938 158.308594 161.625 159.703125 Z M 153.4375 157.152344 L 154.183594 157.152344 L 159.011719 161.953125 L 154.515625 164.636719 Z M 146.277344 145.152344 L 146.277344 144.199219 C 147.296875 144.789062 148.46875 145.152344 149.726562 145.152344 L 149.867188 145.152344 C 150.238281 147.730469 151.421875 150.039062 153.175781 151.820312 L 153.175781 153.722656 L 151.449219 153.722656 C 150.964844 153.722656 150.488281 153.75 150.007812 153.796875 C 147.636719 151.53125 146.277344 148.433594 146.277344 145.152344 Z M 149.726562 141.722656 C 147.828125 141.722656 146.277344 140.183594 146.277344 138.292969 C 146.277344 137.351562 147.050781 136.578125 148.003906 136.578125 L 149.726562 136.578125 Z M 160.070312 117.722656 L 163.519531 117.722656 C 165.195312 117.722656 166.820312 118.015625 168.367188 118.601562 C 167.480469 120.414062 166.96875 122.4375 166.96875 124.578125 C 166.96875 126.027344 167.210938 127.445312 167.660156 128.8125 C 166.214844 129.730469 165.242188 131.324219 165.242188 133.152344 C 165.242188 136.339844 167.453125 138.996094 170.414062 139.765625 L 170.414062 143.4375 C 170.414062 148.164062 166.550781 152.007812 161.796875 152.007812 C 157.039062 152.007812 153.175781 148.164062 153.175781 143.4375 L 153.175781 133.097656 C 156.386719 132.902344 159.511719 132.152344 162.488281 130.859375 C 163.359375 130.480469 163.753906 129.46875 163.371094 128.605469 C 162.992188 127.742188 161.992188 127.339844 161.101562 127.71875 C 158.042969 129.046875 154.796875 129.722656 151.449219 129.722656 C 150.5 129.722656 149.726562 130.492188 149.726562 131.4375 L 149.726562 133.152344 L 148.003906 133.152344 C 147.394531 133.152344 146.816406 133.277344 146.277344 133.464844 L 146.277344 131.4375 C 146.277344 123.875 152.46875 117.722656 160.070312 117.722656 Z M 172.140625 136.578125 C 170.242188 136.578125 168.691406 135.039062 168.691406 133.152344 C 168.691406 132.207031 169.464844 131.4375 170.414062 131.4375 L 172.140625 131.4375 Z M 192.140625 128.523438 C 194.066406 127.085938 196.453125 126.292969 198.863281 126.292969 L 199.726562 126.292969 L 199.726562 140.007812 C 199.726562 146.625 194.308594 152.007812 187.65625 152.007812 C 181.003906 152.007812 175.585938 146.625 175.585938 140.007812 L 175.585938 131.4375 L 183.347656 131.4375 C 186.5 131.4375 189.621094 130.398438 192.140625 128.523438 Z M 204.898438 131.4375 C 205.847656 131.4375 206.621094 132.207031 206.621094 133.152344 C 206.621094 135.039062 205.074219 136.578125 203.171875 136.578125 L 203.171875 131.4375 Z M 180.761719 154.613281 L 180.761719 153.808594 C 182.839844 154.839844 185.179688 155.4375 187.65625 155.4375 C 190.136719 155.4375 192.472656 154.839844 194.554688 153.808594 L 194.554688 154.613281 L 187.65625 160.097656 Z M 173.863281 153.722656 C 172.679688 153.722656 171.527344 153.871094 170.414062 154.117188 L 170.414062 151.820312 C 171.898438 150.308594 172.976562 148.414062 173.5 146.296875 C 174.394531 148.285156 175.703125 150.039062 177.3125 151.472656 L 177.3125 153.722656 Z M 201.449219 153.722656 L 198 153.722656 L 198 151.472656 C 199.609375 150.039062 200.917969 148.285156 201.8125 146.296875 C 202.339844 148.414062 203.414062 150.308594 204.898438 151.820312 L 204.898438 154.117188 C 203.785156 153.871094 202.632812 153.722656 201.449219 153.722656 Z M 218.441406 128.5625 C 220.839844 131.402344 222.136719 134.960938 222.136719 138.710938 L 222.136719 143.4375 C 222.136719 148.164062 218.273438 152.007812 213.519531 152.007812 C 208.761719 152.007812 204.898438 148.164062 204.898438 143.4375 L 204.898438 139.765625 C 207.859375 138.996094 210.070312 136.339844 210.070312 133.152344 C 210.070312 132.851562 210.03125 132.554688 209.980469 132.265625 C 212.992188 131.496094 215.867188 130.265625 218.441406 128.5625 Z M 227.3125 136.578125 C 228.261719 136.578125 229.035156 137.351562 229.035156 138.292969 C 229.035156 140.183594 227.484375 141.722656 225.585938 141.722656 L 225.585938 138.710938 C 225.585938 137.992188 225.539062 137.28125 225.457031 136.578125 Z M 223.863281 153.722656 L 222.136719 153.722656 L 222.136719 151.820312 C 223.890625 150.039062 225.074219 147.730469 225.445312 145.152344 L 225.585938 145.152344 C 229.390625 145.152344 232.484375 142.078125 232.484375 138.292969 C 232.484375 137.242188 232.160156 136.265625 231.613281 135.453125 C 232.179688 134.164062 232.484375 132.816406 232.484375 131.4375 C 232.484375 129.480469 232.160156 127.59375 231.519531 125.820312 C 231.195312 124.929688 230.207031 124.460938 229.3125 124.78125 C 228.421875 125.101562 227.949219 126.085938 228.273438 126.976562 C 228.777344 128.375 229.035156 129.875 229.035156 131.4375 C 229.035156 132.09375 228.898438 132.734375 228.703125 133.367188 C 228.261719 133.238281 227.796875 133.152344 227.3125 133.152344 L 224.773438 133.152344 C 223.863281 130.136719 222.210938 127.371094 219.910156 125.082031 C 219.304688 124.480469 218.339844 124.414062 217.660156 124.921875 C 214.859375 127.011719 211.570312 128.445312 208.125 129.167969 C 207.847656 128.9375 207.542969 128.746094 207.222656 128.585938 C 207.953125 126.761719 208.34375 124.828125 208.34375 122.867188 L 208.34375 118.203125 C 209.484375 117.910156 210.640625 117.722656 211.792969 117.722656 L 215.242188 117.722656 C 218.953125 117.722656 222.429688 119.167969 225.035156 121.789062 C 225.371094 122.128906 225.816406 122.296875 226.261719 122.296875 C 226.699219 122.296875 227.136719 122.136719 227.472656 121.808594 C 228.144531 121.136719 228.152344 120.054688 227.484375 119.382812 C 224.226562 116.101562 219.882812 114.292969 215.242188 114.292969 L 211.792969 114.292969 C 210.640625 114.292969 209.492188 114.421875 208.34375 114.664062 L 208.34375 112.578125 C 208.34375 111.636719 207.570312 110.867188 206.621094 110.867188 L 196.277344 110.867188 C 195.328125 110.867188 194.554688 111.636719 194.554688 112.578125 C 194.554688 113.523438 195.328125 114.292969 196.277344 114.292969 L 204.898438 114.292969 L 204.898438 122.867188 C 204.898438 124.648438 204.472656 126.402344 203.691406 128.007812 L 203.171875 128.007812 L 203.171875 124.578125 C 203.171875 123.636719 202.398438 122.867188 201.449219 122.867188 L 198.863281 122.867188 C 195.710938 122.867188 192.585938 123.902344 190.066406 125.777344 C 188.140625 127.21875 185.757812 128.007812 183.347656 128.007812 L 171.015625 128.007812 C 170.617188 126.902344 170.414062 125.75 170.414062 124.578125 C 170.414062 118.90625 175.054688 114.292969 180.761719 114.292969 L 189.378906 114.292969 C 190.332031 114.292969 191.105469 113.523438 191.105469 112.578125 C 191.105469 111.636719 190.332031 110.867188 189.378906 110.867188 L 180.761719 110.867188 C 176.5625 110.867188 172.804688 112.746094 170.273438 115.695312 C 168.140625 114.789062 165.835938 114.292969 163.519531 114.292969 L 160.070312 114.292969 C 150.5625 114.292969 142.828125 121.980469 142.828125 131.4375 L 142.828125 145.152344 C 142.828125 148.640625 144.023438 151.976562 146.15625 154.667969 C 140.203125 156.824219 135.933594 162.496094 135.933594 169.152344 L 135.933594 186.292969 C 135.933594 187.238281 136.707031 188.007812 137.65625 188.007812 C 138.605469 188.007812 139.382812 187.238281 139.382812 186.292969 L 139.382812 169.152344 C 139.382812 163.03125 144.015625 157.980469 149.96875 157.25 L 151.46875 167.679688 C 151.550781 168.246094 151.914062 168.734375 152.433594 168.984375 C 152.667969 169.097656 152.917969 169.152344 153.175781 169.152344 C 153.484375 169.152344 153.789062 169.070312 154.0625 168.902344 L 158.644531 166.171875 C 158.453125 167.136719 158.347656 168.132812 158.347656 169.152344 C 158.347656 170.09375 159.121094 170.867188 160.070312 170.867188 C 161.019531 170.867188 161.796875 170.09375 161.796875 169.152344 C 161.796875 162.910156 166.617188 157.765625 172.753906 157.203125 L 177.453125 168.113281 C 177.648438 168.570312 178.03125 168.917969 178.503906 169.070312 C 178.679688 169.125 178.859375 169.152344 179.035156 169.152344 C 179.347656 169.152344 179.648438 169.070312 179.925781 168.902344 L 182.054688 167.636719 L 182.464844 169.277344 L 180.765625 186.121094 C 180.726562 186.546875 180.847656 186.976562 181.105469 187.324219 L 186.277344 194.183594 C 186.605469 194.609375 187.109375 194.867188 187.65625 194.867188 C 188.203125 194.867188 188.707031 194.609375 189.035156 194.183594 L 194.210938 187.324219 C 194.464844 186.976562 194.585938 186.546875 194.546875 186.121094 L 193.507812 175.839844 C 193.414062 174.898438 192.59375 174.214844 191.625 174.300781 C 190.671875 174.394531 189.988281 175.238281 190.082031 176.175781 L 191.042969 185.796875 L 187.65625 190.292969 L 184.269531 185.796875 L 185.769531 170.867188 L 191.105469 170.867188 C 191.898438 170.867188 192.585938 170.328125 192.773438 169.566406 L 193.261719 167.636719 L 195.386719 168.902344 C 195.664062 169.070312 195.96875 169.152344 196.277344 169.152344 C 196.453125 169.152344 196.632812 169.125 196.808594 169.070312 C 197.28125 168.917969 197.664062 168.570312 197.859375 168.113281 L 202.558594 157.203125 C 208.695312 157.765625 213.519531 162.910156 213.519531 169.152344 L 213.519531 193.152344 C 213.519531 194.09375 214.292969 194.867188 215.242188 194.867188 C 216.191406 194.867188 216.964844 194.09375 216.964844 193.152344 L 216.964844 169.152344 C 216.964844 168.132812 216.859375 167.136719 216.667969 166.171875 L 221.25 168.902344 C 221.527344 169.070312 221.828125 169.152344 222.136719 169.152344 C 222.394531 169.152344 222.644531 169.097656 222.878906 168.984375 C 223.398438 168.734375 223.761719 168.246094 223.84375 167.679688 L 225.34375 157.25 C 231.304688 157.980469 235.929688 163.03125 235.929688 169.152344 L 235.929688 186.292969 C 235.929688 187.238281 236.707031 188.007812 237.65625 188.007812 C 238.605469 188.007812 239.378906 187.238281 239.378906 186.292969 L 239.378906 169.152344 C 239.378906 160.648438 232.421875 153.722656 223.863281 153.722656 " fill-opacity="1" fill-rule="nonzero"/></g><path fill="#5297ff" d="M 158.347656 136.578125 C 157.398438 136.578125 156.621094 137.351562 156.621094 138.292969 C 156.621094 139.238281 157.398438 140.007812 158.347656 140.007812 C 159.296875 140.007812 160.070312 139.238281 160.070312 138.292969 C 160.070312 137.351562 159.296875 136.578125 158.347656 136.578125 " fill-opacity="1" fill-rule="nonzero"/><path fill="#5297ff" d="M 165.242188 140.007812 C 166.191406 140.007812 166.96875 139.238281 166.96875 138.292969 C 166.96875 137.351562 166.191406 136.578125 165.242188 136.578125 C 164.292969 136.578125 163.519531 137.351562 163.519531 138.292969 C 163.519531 139.238281 164.292969 140.007812 165.242188 140.007812 " fill-opacity="1" fill-rule="nonzero"/><g clip-path="url(#44b2aec187)"><path fill="#5297ff" d="M 160.070312 174.292969 C 159.121094 174.292969 158.347656 175.0625 158.347656 176.007812 L 158.347656 193.152344 C 158.347656 194.09375 159.121094 194.867188 160.070312 194.867188 C 161.019531 194.867188 161.796875 194.09375 161.796875 193.152344 L 161.796875 176.007812 C 161.796875 175.0625 161.019531 174.292969 160.070312 174.292969 " fill-opacity="1" fill-rule="nonzero"/></g><path fill="#5297ff" d="M 182.484375 138.292969 C 183.433594 138.292969 184.207031 137.523438 184.207031 136.578125 C 184.207031 135.636719 183.433594 134.867188 182.484375 134.867188 C 181.535156 134.867188 180.761719 135.636719 180.761719 136.578125 C 180.761719 137.523438 181.535156 138.292969 182.484375 138.292969 " fill-opacity="1" fill-rule="nonzero"/><path fill="#5297ff" d="M 192.828125 138.292969 C 193.777344 138.292969 194.554688 137.523438 194.554688 136.578125 C 194.554688 135.636719 193.777344 134.867188 192.828125 134.867188 C 191.878906 134.867188 191.105469 135.636719 191.105469 136.578125 C 191.105469 137.523438 191.878906 138.292969 192.828125 138.292969 " fill-opacity="1" fill-rule="nonzero"/></svg>