<svg xmlns="http://www.w3.org/2000/svg" xmlns:xlink="http://www.w3.org/1999/xlink" width="500" zoomAndPan="magnify" viewBox="0 0 375 374.999991" height="500" preserveAspectRatio="xMidYMid meet" version="1.0"><defs><clipPath id="858e48cec1"><path d="M 97.425781 134.761719 L 312.546875 134.761719 L 312.546875 265.667969 L 97.425781 265.667969 Z M 97.425781 134.761719 " clip-rule="nonzero"/></clipPath><clipPath id="8d1936e3d6"><path d="M 62.808594 108.945312 L 303 108.945312 L 303 241 L 62.808594 241 Z M 62.808594 108.945312 " clip-rule="nonzero"/></clipPath></defs><g clip-path="url(#858e48cec1)"><path fill="#26a9e0" d="M 309.066406 193.214844 C 308.558594 192.617188 296.390625 178.453125 276.386719 164.171875 C 264.59375 155.75 252.5 149.027344 240.433594 144.195312 C 225.175781 138.082031 209.925781 134.980469 195.105469 134.980469 C 174.378906 134.980469 154.378906 139.503906 135.65625 148.421875 C 121.917969 154.96875 109.109375 163.742188 97.59375 174.492188 L 106.707031 184.183594 C 117.226562 174.363281 128.902344 166.363281 141.410156 160.40625 C 158.320312 152.347656 176.386719 148.261719 195.105469 148.261719 C 224.84375 148.261719 251.351562 162.675781 268.347656 174.769531 C 271.726562 177.171875 274.871094 179.582031 277.765625 181.917969 C 281.59375 185.015625 284.976562 187.984375 287.851562 190.640625 C 290.867188 193.425781 293.320312 195.867188 295.144531 197.753906 C 289.191406 204.636719 276.261719 218.429688 260.214844 228.65625 C 235.507812 244.402344 210.035156 252.386719 184.511719 252.386719 C 169.699219 252.386719 155.199219 249.765625 141.320312 244.589844 C 137.980469 243.34375 134.246094 244.894531 132.828125 248.15625 L 132.828125 248.160156 C 131.320312 251.628906 133.011719 255.671875 136.566406 257 C 151.96875 262.753906 168.0625 265.667969 184.511719 265.667969 C 212.625 265.667969 240.511719 256.980469 267.398438 239.84375 C 291.554688 224.449219 308.566406 202.476562 309.28125 201.546875 L 312.546875 197.296875 L 309.066406 193.214844 " fill-opacity="1" fill-rule="nonzero"/></g><path fill="#b852ff" d="M 187.542969 153.296875 C 168.613281 153.296875 153.210938 168.640625 153.210938 187.503906 C 153.210938 206.363281 168.613281 221.707031 187.542969 221.707031 C 206.476562 221.707031 221.875 206.363281 221.875 187.503906 C 221.875 168.640625 206.476562 153.296875 187.542969 153.296875 Z M 187.542969 166.578125 C 199.125 166.578125 208.546875 175.964844 208.546875 187.503906 C 208.546875 199.039062 199.125 208.425781 187.542969 208.425781 C 175.960938 208.425781 166.539062 199.039062 166.539062 187.503906 C 166.539062 175.964844 175.960938 166.578125 187.542969 166.578125 " fill-opacity="1" fill-rule="nonzero"/><g clip-path="url(#8d1936e3d6)"><path fill="#b852ff" d="M 273.792969 185.859375 C 257.808594 201.160156 224.164062 227.117188 179.925781 227.117188 C 151.796875 227.117188 125.617188 217.058594 102.121094 197.222656 C 91.578125 188.320312 83.917969 179.253906 79.539062 173.527344 C 84.390625 167.9375 92.96875 159.039062 104.910156 150.339844 C 130.507812 131.699219 159.21875 122.246094 190.246094 122.246094 C 199.953125 122.246094 209.648438 123.285156 219.0625 125.332031 C 245.28125 131.027344 270.773438 143.109375 291.523438 159.582031 C 294.324219 161.804688 298.382812 161.433594 300.722656 158.734375 L 300.726562 158.730469 C 303.195312 155.878906 302.796875 151.550781 299.84375 149.203125 C 277.507812 131.476562 250.089844 118.480469 221.902344 112.351562 C 211.558594 110.105469 200.910156 108.964844 190.246094 108.964844 C 156.328125 108.964844 124.96875 119.277344 97.042969 139.621094 C 81.007812 151.296875 70.625 163.140625 65.863281 169.160156 L 62.808594 173.023438 L 65.628906 177.0625 C 69.914062 183.207031 79.238281 195.3125 93.503906 207.355469 C 119.472656 229.28125 148.550781 240.398438 179.925781 240.398438 C 204.890625 240.398438 229.34375 233.199219 252.613281 218.996094 C 266.113281 210.753906 276.761719 201.589844 284.035156 194.484375 C 281.597656 192.289062 278.851562 189.925781 275.824219 187.476562 C 275.160156 186.941406 274.484375 186.402344 273.792969 185.859375 " fill-opacity="1" fill-rule="nonzero"/></g><path fill="#2b388f" d="M 287.851562 190.640625 C 284.976562 187.984375 281.59375 185.015625 277.765625 181.917969 C 276.597656 183.121094 275.265625 184.445312 273.792969 185.859375 C 274.484375 186.402344 275.160156 186.941406 275.824219 187.476562 C 278.851562 189.925781 281.597656 192.289062 284.035156 194.484375 C 285.433594 193.121094 286.707031 191.832031 287.851562 190.640625 " fill-opacity="1" fill-rule="nonzero"/></svg>